<svg width="256" height="256" viewBox="0 0 256 256" fill="none" xmlns="http://www.w3.org/2000/svg">
<rect width="256" height="256" rx="40" fill="#7AF264"/>
<g filter="url(#filter0_ii_1_22)">
<path d="M102.368 143.511C107.214 141.996 115.012 139.8 124.023 139.27C118.647 125.642 117.284 113.754 118.344 103.154C119.555 90.8879 123.871 80.6662 128.111 72.0346L130.686 66.7344C131.897 64.463 132.957 62.1915 134.017 59.92C135.683 56.2856 137.046 53.0298 137.651 49.9255C138.257 46.8968 138.257 44.3225 137.5 41.7481C136.743 39.1738 135.229 36.448 132.2 33.4194C130.176 32.8848 128.052 32.8609 126.017 33.3499C123.981 33.8388 122.1 34.8253 120.54 36.2209L81.4701 71.3531C79.2744 73.246 77.8358 75.8961 77.4572 78.849L74.0499 101.11C86.6609 112.816 96.3586 127.311 102.368 143.435V143.511ZM72.4599 111.331C72.3085 112.088 72.0056 112.846 71.7027 113.603L51.108 159.638C48.9879 164.333 49.9722 169.86 53.5309 173.57L86.0131 207.112C92.7869 197.745 96.9639 186.753 98.1207 175.251C99.2776 163.75 97.3731 152.146 92.6004 141.618C86.846 127.989 78.2143 117.389 72.4599 111.407V111.331Z" fill="#004B25"/>
<path d="M93.509 210.898C113.165 213.186 132.644 216.803 151.81 221.725C160.366 224.224 169.149 217.41 170.361 208.627C171.269 202.191 172.935 194.922 176.115 188.259H176.04C172.41 176.681 165.835 166.245 156.959 157.972C150.772 152.582 143.136 149.133 135.001 148.054C122.887 146.312 111.757 149.568 104.715 151.612C107.188 161.734 107.467 172.267 105.534 182.505C103.601 192.744 99.5013 202.45 93.509 210.974V210.898Z" fill="#004B25"/>
<path d="M181.491 179.173C188.533 168.573 193.53 160.32 196.18 155.852C196.797 154.758 197.076 153.504 196.982 152.251C196.888 150.998 196.424 149.801 195.65 148.811C189.29 140.615 183.879 131.725 179.522 122.31C175.207 111.861 174.525 95.658 174.525 87.7079C174.525 84.6792 173.541 81.802 171.724 79.3791L146.435 47.4269C146.435 48.8655 146.132 50.3041 145.905 51.667C144.939 55.7752 143.517 59.7625 141.664 63.5544L138.106 70.7474L135.683 75.669C131.022 84.4924 127.995 94.0861 126.748 103.987C125.753 116.134 127.973 128.329 133.184 139.346L136.213 139.725C144.92 140.936 154.082 144.268 162.486 151.537C169.679 157.821 176.191 166.68 181.491 179.173Z" fill="#004B25"/>
</g>
<defs>
<filter id="filter0_ii_1_22" x="47" y="31" width="151" height="193.248" filterUnits="userSpaceOnUse" color-interpolation-filters="sRGB">
<feFlood flood-opacity="0" result="BackgroundImageFix"/>
<feBlend mode="normal" in="SourceGraphic" in2="BackgroundImageFix" result="shape"/>
<feColorMatrix in="SourceAlpha" type="matrix" values="0 0 0 0 0 0 0 0 0 0 0 0 0 0 0 0 0 0 127 0" result="hardAlpha"/>
<feOffset dx="-3" dy="-2"/>
<feGaussianBlur stdDeviation="2"/>
<feComposite in2="hardAlpha" operator="arithmetic" k2="-1" k3="1"/>
<feColorMatrix type="matrix" values="0 0 0 0 0 0 0 0 0 0 0 0 0 0 0 0 0 0 0.25 0"/>
<feBlend mode="normal" in2="shape" result="effect1_innerShadow_1_22"/>
<feColorMatrix in="SourceAlpha" type="matrix" values="0 0 0 0 0 0 0 0 0 0 0 0 0 0 0 0 0 0 127 0" result="hardAlpha"/>
<feOffset dx="1" dy="2"/>
<feGaussianBlur stdDeviation="1.65"/>
<feComposite in2="hardAlpha" operator="arithmetic" k2="-1" k3="1"/>
<feColorMatrix type="matrix" values="0 0 0 0 1 0 0 0 0 1 0 0 0 0 1 0 0 0 0.31 0"/>
<feBlend mode="normal" in2="effect1_innerShadow_1_22" result="effect2_innerShadow_1_22"/>
</filter>
</defs>
</svg>
