<svg width="260" height="268" viewBox="0 0 260 268" fill="none" xmlns="http://www.w3.org/2000/svg">
<rect x="1" y="5" width="258" height="258" rx="41" fill="white" fill-opacity="0.03" stroke="#7AF264" stroke-width="2" stroke-linecap="round" stroke-linejoin="round" stroke-dasharray="7 14"/>
<g filter="url(#filter0_d_1_23)">
<path d="M101.872 145.837C102.396 147.093 102.898 148.36 103.376 149.637C103.41 149.907 103.553 150.153 103.775 150.316C104.032 150.505 104.362 150.56 104.666 150.465C105.706 150.14 106.88 149.784 108.172 149.421C108.702 149.272 109.011 148.722 108.865 148.192C112.362 147.243 116.624 146.277 121.355 145.696C121.418 146.242 121.91 146.635 122.457 146.575C123.64 146.445 124.849 146.341 126.081 146.269C126.401 146.25 126.693 146.079 126.865 145.809C127.038 145.538 127.07 145.202 126.953 144.904C126.574 143.944 126.216 142.994 125.878 142.052C125.691 141.534 125.121 141.264 124.603 141.448C123.416 138.038 122.483 134.74 121.777 131.546C122.314 131.43 122.658 130.903 122.546 130.364C122.122 128.325 121.792 126.329 121.548 124.376C121.48 123.83 120.984 123.443 120.439 123.507C120.045 119.947 119.934 116.522 120.062 113.22C120.61 113.245 121.077 112.823 121.107 112.274C121.162 111.256 121.239 110.249 121.339 109.253L121.339 109.252C121.428 108.349 121.535 107.457 121.657 106.576C121.732 106.031 121.354 105.528 120.81 105.449C121.275 102.411 121.923 99.5051 122.699 96.7224C123.227 96.8735 123.779 96.5697 123.934 96.0416C124.448 94.2817 125.014 92.5712 125.617 90.9079C125.805 90.3904 125.539 89.8189 125.023 89.6288C126.104 86.7427 127.287 84.0039 128.498 81.4016C128.997 81.6357 129.591 81.4223 129.827 80.924C130.22 80.0944 130.614 79.2784 131.009 78.4755L131.011 78.4715L131.44 77.5881C131.681 77.0913 131.474 76.493 130.977 76.2517L131.82 74.5173C132.316 74.7586 132.915 74.5515 133.156 74.0547L133.577 73.1882C133.776 72.8153 133.97 72.4428 134.161 72.0706C134.413 71.5793 134.219 70.9765 133.728 70.7244C133.727 70.7235 133.725 70.7227 133.723 70.7219C134.182 69.8047 134.623 68.8875 135.056 67.9703C135.057 67.9706 135.057 67.9708 135.058 67.971C135.558 68.2053 136.153 67.9899 136.387 67.4897C136.567 67.1073 136.745 66.725 136.923 66.3435L136.923 66.3429L136.926 66.3367C137.179 65.786 137.425 65.2426 137.663 64.7063C137.887 64.2015 137.659 63.6107 137.154 63.3867C137.153 63.386 137.151 63.3854 137.15 63.3847C137.864 61.7286 138.485 60.1465 138.962 58.6136C138.968 58.6153 138.973 58.6169 138.979 58.6184C139.512 58.7645 140.062 58.4511 140.208 57.9185C140.373 57.3152 140.516 56.7154 140.633 56.118C140.728 55.6405 140.81 55.1719 140.876 54.7107C140.954 54.1641 140.575 53.6572 140.028 53.5785C140.021 53.5774 140.013 53.5764 140.005 53.5755C140.122 52.3585 140.118 51.2034 139.981 50.0738C139.992 50.072 140.004 50.07 140.015 50.0677C140.558 49.963 140.912 49.4385 140.808 48.8962C140.715 48.4172 140.599 47.9412 140.459 47.466C140.298 46.9171 140.104 46.3618 139.872 45.7989C139.661 45.2885 139.076 45.0456 138.566 45.2565C138.556 45.2605 138.547 45.2646 138.537 45.2688C137.93 44.0225 137.108 42.7332 135.995 41.3859C136 41.3818 136.005 41.3776 136.01 41.3734C136.422 41.0055 136.457 40.3733 136.089 39.9614C135.721 39.5493 135.328 39.133 134.907 38.7123C134.782 38.5873 134.626 38.4977 134.455 38.4525C134.092 38.3567 133.726 38.276 133.358 38.2106C132.815 38.1139 132.296 38.4764 132.199 39.0201C132.197 39.0332 132.195 39.0462 132.193 39.0592C131.474 38.9894 130.751 38.9813 130.031 39.0349C130.03 39.0219 130.028 39.0088 130.026 38.9957C129.942 38.4499 129.431 38.0759 128.885 38.1603C128.516 38.2175 128.148 38.2899 127.783 38.3775C127.418 38.4652 127.058 38.5678 126.703 38.6847C126.178 38.8574 125.893 39.4227 126.065 39.9473C126.07 39.9599 126.074 39.9723 126.079 39.9846C125.413 40.2639 124.772 40.5996 124.164 40.9882C124.157 40.9774 124.149 40.9667 124.141 40.9561C123.808 40.5156 123.181 40.4286 122.74 40.7618C122.442 40.9872 122.153 41.2253 121.873 41.4756L121.871 41.4773L119.7 43.4291C119.29 43.7983 119.256 44.4306 119.626 44.8413L112.431 51.3112C112.061 50.9005 111.429 50.867 111.018 51.2362L106.677 55.1398C106.267 55.5091 106.233 56.1414 106.602 56.5521L99.4074 63.0219C99.0381 62.6113 98.4058 62.5777 97.9952 62.947L93.6541 66.8506C93.2435 67.2199 93.2099 67.8521 93.5792 68.2628L86.3842 74.7327C86.015 74.322 85.3827 74.2885 84.972 74.6578L82.8091 76.6027C82.4137 76.9442 82.0409 77.3083 81.6923 77.6928C81.3214 78.102 81.3524 78.7344 81.7616 79.1054C81.7721 79.1149 81.7828 79.1242 81.7936 79.1332C81.0288 80.1363 80.4263 81.2604 80.0118 82.4673C79.9985 82.4633 79.9851 82.4597 79.9716 82.4562C79.4361 82.3211 78.8924 82.6456 78.7572 83.1811C78.6311 83.6808 78.5339 84.191 78.4669 84.7095L77.9008 88.4078C77.8173 88.9537 78.1921 89.464 78.738 89.5476L76.7691 102.411C76.2232 102.327 75.7129 102.702 75.6293 103.248L75.0615 106.958C75.0113 107.286 75.1267 107.617 75.3696 107.842C76.4074 108.806 77.4254 109.788 78.4229 110.789C78.8117 111.179 79.4425 111.181 79.8339 110.795C83.3699 114.407 86.6463 118.251 89.6432 122.298C89.1996 122.623 89.1021 123.246 89.4259 123.692C91.0893 125.98 92.6632 128.333 94.1441 130.744C94.4323 131.213 95.0456 131.361 95.5157 131.075C98.1121 135.389 100.415 139.884 102.405 144.531C101.898 144.745 101.66 145.329 101.872 145.837ZM77.2735 118.96C76.6115 118.227 75.9733 117.542 75.3652 116.906C75.2196 116.596 74.9193 116.372 74.5584 116.336C74.0468 116.285 73.5802 116.631 73.4793 117.135C73.3502 117.781 73.0886 118.445 72.7817 119.213L71.0737 123.031C70.8482 123.535 71.074 124.126 71.5781 124.352L65.53 137.871C65.0258 137.646 64.4343 137.872 64.2088 138.376L60.7763 146.048C60.5508 146.552 60.7766 147.144 61.2808 147.37L55.2326 160.889C54.7284 160.663 54.1369 160.889 53.9114 161.393L52.1966 165.227C52.1963 165.227 52.1961 165.228 52.1958 165.228C51.8204 166.06 51.5352 166.916 51.3376 167.783C51.2149 168.322 51.552 168.858 52.0905 168.98C52.1036 168.983 52.1167 168.986 52.1297 168.988C51.7445 171.647 52.2236 174.369 53.4843 176.742C53.473 176.749 53.4618 176.756 53.4506 176.763C52.9849 177.06 52.8478 177.678 53.1446 178.144C53.6229 178.894 54.1787 179.605 54.8092 180.262L54.8125 180.266L57.5194 183.061C57.9036 183.457 58.5367 183.468 58.9334 183.083L68.3695 192.827C67.9727 193.212 67.9626 193.845 68.3468 194.241L73.7605 199.832C74.1447 200.229 74.7778 200.239 75.1745 199.855L84.6106 209.599C84.2138 209.983 84.2037 210.616 84.5879 211.013L87.2947 213.808C87.5005 214.02 87.7897 214.131 88.0847 214.11C88.3796 214.088 88.6501 213.938 88.8234 213.698C89.394 212.909 89.9465 212.109 90.4805 211.297C90.7842 210.836 90.6565 210.216 90.1952 209.912C90.1931 209.911 90.191 209.91 90.1888 209.908C91.8932 207.232 93.397 204.441 94.6913 201.56C94.6936 201.561 94.6959 201.562 94.6983 201.563C95.2054 201.782 95.7938 201.548 96.0124 201.041C96.7823 199.255 97.4736 197.435 98.0842 195.589C98.2576 195.064 97.9731 194.499 97.4487 194.325C97.4463 194.325 97.4439 194.324 97.4415 194.323C98.3872 191.31 99.1162 188.225 99.6195 185.092C99.6221 185.092 99.6246 185.092 99.6271 185.093C100.174 185.172 100.681 184.793 100.76 184.247C100.9 183.286 101.018 182.32 101.116 181.351C101.213 180.383 101.289 179.413 101.344 178.443C101.375 177.892 100.953 177.42 100.402 177.389C100.399 177.388 100.397 177.388 100.394 177.388C100.525 174.218 100.425 171.049 100.098 167.908C100.101 167.908 100.103 167.907 100.106 167.907C100.654 167.842 101.046 167.344 100.98 166.796C100.75 164.864 100.434 162.944 100.036 161.04C99.9223 160.5 99.3923 160.153 98.8518 160.267C98.8493 160.267 98.8468 160.268 98.8443 160.268C98.1497 157.187 97.2318 154.153 96.0945 151.191C96.0969 151.19 96.0993 151.189 96.1016 151.188C96.6141 150.982 96.8628 150.4 96.657 149.887C96.2968 148.99 95.9166 148.1 95.5166 147.217C95.1158 146.268 94.7013 145.334 94.275 144.415C94.0426 143.914 93.4481 143.696 92.9471 143.929C92.9454 143.929 92.9437 143.93 92.942 143.931C91.4291 140.763 89.7779 137.781 88.0708 135.01C88.0722 135.009 88.0736 135.008 88.075 135.007C88.5423 134.713 88.6827 134.095 88.3884 133.628C87.2596 131.835 86.1107 130.133 84.9646 128.529C84.6436 128.079 84.0191 127.975 83.5697 128.296C83.5684 128.297 83.5671 128.298 83.5659 128.299C81.3638 125.276 79.1859 122.62 77.1981 120.376C77.1993 120.374 77.2005 120.373 77.2017 120.372C77.6115 120.002 77.6437 119.37 77.2735 118.96Z" fill="#7AF264" fill-opacity="0.1" stroke="#7AF264" stroke-width="2" stroke-linecap="round" stroke-linejoin="round" stroke-dasharray="7 14"/>
<path d="M97.4838 212.11C96.6655 213.47 95.8013 214.804 94.8922 216.111C94.8758 216.124 94.8597 216.137 94.8441 216.151C94.6309 216.341 94.509 216.613 94.509 216.898V216.911C94.509 216.919 94.5091 216.927 94.5093 216.936C94.5091 216.944 94.509 216.953 94.509 216.961V216.974C94.509 217.41 94.7916 217.796 95.2074 217.927C95.398 217.987 95.5964 217.988 95.7796 217.936C96.7399 218.049 97.6998 218.165 98.6593 218.284C99.207 218.352 99.7061 217.963 99.7746 217.416C103.475 217.883 107.169 218.398 110.855 218.96C110.771 219.505 111.145 220.015 111.69 220.1C113.857 220.435 116.022 220.786 118.184 221.154C118.728 221.247 119.244 220.881 119.337 220.337C123.012 220.971 126.679 221.652 130.336 222.38C130.228 222.921 130.578 223.448 131.119 223.557C133.269 223.99 135.416 224.439 137.559 224.904C138.098 225.021 138.63 224.679 138.748 224.14C142.39 224.939 146.022 225.785 149.643 226.677C149.511 227.213 149.837 227.755 150.373 227.888C151.431 228.151 152.489 228.419 153.546 228.69C155.062 229.131 156.586 229.3 158.078 229.233C158.63 229.209 159.057 228.741 159.033 228.19C159.032 228.177 159.031 228.164 159.03 228.152C163.973 227.552 168.432 224.199 170.774 219.629C170.926 219.333 171.069 219.031 171.202 218.725C171.766 217.432 172.164 216.055 172.361 214.627L173.351 214.766C173.351 214.766 173.351 214.765 173.351 214.764C173.511 213.634 173.694 212.48 173.904 211.307C174.002 210.766 173.643 210.248 173.103 210.147C173.835 206.32 174.867 202.328 176.338 198.436C176.849 198.635 177.426 198.384 177.629 197.874C178.056 196.8 178.518 195.737 179.018 194.69C179.166 194.38 179.144 194.016 178.961 193.725C178.939 193.69 178.914 193.656 178.887 193.623C178.613 192.763 178.322 191.908 178.016 191.061C177.828 190.541 177.255 190.273 176.736 190.46C176.733 190.461 176.731 190.462 176.729 190.463C175.54 187.315 174.129 184.265 172.509 181.334C172.511 181.333 172.513 181.332 172.515 181.33C172.995 181.056 173.162 180.446 172.888 179.966C171.876 178.195 170.788 176.468 169.627 174.79C169.313 174.336 168.69 174.223 168.236 174.537C168.234 174.538 168.232 174.54 168.23 174.541C166.285 171.815 164.143 169.225 161.817 166.794C161.819 166.792 161.821 166.79 161.822 166.789C162.216 166.401 162.221 165.768 161.834 165.374C161.119 164.649 160.388 163.937 159.641 163.241C159.633 163.233 159.624 163.226 159.616 163.218C158.564 162.302 157.472 161.441 156.343 160.636C155.893 160.316 155.269 160.42 154.948 160.87C154.946 160.873 154.943 160.877 154.941 160.88C150.987 158.202 146.602 156.221 141.978 155.024C141.979 155.02 141.98 155.016 141.981 155.012C142.107 154.475 141.772 153.937 141.234 153.811C139.886 153.497 138.519 153.246 137.138 153.063C135.379 152.81 133.642 152.661 131.936 152.597C131.384 152.576 130.92 153.006 130.899 153.558C130.899 153.561 130.899 153.565 130.899 153.568C124.084 153.442 117.784 154.654 112.614 155.974C112.614 155.973 112.613 155.972 112.613 155.97C112.472 155.436 111.924 155.118 111.391 155.259C109.614 155.729 107.984 156.202 106.537 156.623L106.436 156.652C105.922 156.801 105.616 157.329 105.744 157.85C106.149 159.51 106.495 161.182 106.781 162.861C106.873 163.403 107.386 163.769 107.928 163.68C108.894 169.867 109.06 176.152 108.424 182.382C107.878 182.322 107.385 182.714 107.322 183.26C107.125 184.953 106.869 186.64 106.551 188.32C106.234 189.999 105.858 191.664 105.424 193.312C105.284 193.844 105.6 194.388 106.13 194.532C104.452 200.565 102.005 206.357 98.8504 211.765C98.378 211.485 97.7674 211.639 97.4838 212.11Z" fill="#7AF264" fill-opacity="0.1" stroke="#7AF264" stroke-width="2" stroke-linecap="round" stroke-linejoin="round" stroke-dasharray="7 14"/>
<path d="M182.571 185.563C182.714 185.902 183.032 186.135 183.399 186.169C183.765 186.203 184.12 186.033 184.324 185.726C185.2 184.408 186.044 183.126 186.856 181.883C187.158 181.421 187.028 180.801 186.565 180.499C186.565 180.499 186.565 180.499 186.565 180.499C190.145 174.997 193.074 170.296 195.298 166.645C195.299 166.645 195.299 166.645 195.299 166.645C195.771 166.932 196.386 166.781 196.673 166.309C197.6 164.781 198.39 163.458 199.04 162.363L199.051 162.344C199.17 162.133 199.277 161.918 199.374 161.698C199.597 161.193 199.368 160.603 198.863 160.38C198.839 160.369 198.814 160.359 198.79 160.351C198.832 160.192 198.867 160.031 198.897 159.87C198.923 159.872 198.949 159.874 198.975 159.874C199.527 159.887 199.985 159.45 199.998 158.898C200.004 158.658 199.997 158.417 199.979 158.176C199.961 157.935 199.931 157.696 199.89 157.46C199.795 156.916 199.276 156.552 198.732 156.647C198.706 156.652 198.681 156.658 198.656 156.664C198.602 156.508 198.543 156.355 198.478 156.204C198.5 156.192 198.523 156.179 198.546 156.165C199.012 155.869 199.15 155.251 198.854 154.784C198.726 154.583 198.588 154.387 198.44 154.198C198.439 154.197 198.439 154.196 198.438 154.195C197.387 152.841 196.362 151.467 195.364 150.076C195.043 149.628 194.42 149.524 193.971 149.844C190.369 144.743 187.119 139.403 184.244 133.86C184.734 133.608 184.928 133.007 184.678 132.516C183.903 130.996 183.157 129.46 182.439 127.909C182.09 127.063 181.764 126.174 181.46 125.251C181.289 124.73 180.729 124.445 180.208 124.611C179.3 121.649 178.61 118.411 178.087 115.134C178.631 115.05 179.005 114.543 178.924 113.998C178.635 112.068 178.404 110.13 178.218 108.233C178.165 107.684 177.678 107.283 177.13 107.334C176.812 103.813 176.65 100.473 176.577 97.6317C177.128 97.6193 177.565 97.1636 177.554 96.6125C177.534 95.5561 177.525 94.5815 177.525 93.7079C177.525 93.1716 177.496 92.6394 177.439 92.1127C177.38 91.5637 176.887 91.1667 176.338 91.226C176.326 91.2273 176.314 91.2289 176.302 91.2306C176.063 89.9282 175.638 88.6726 175.039 87.4906C175.049 87.4849 175.059 87.479 175.069 87.4729C175.543 87.1889 175.697 86.5747 175.413 86.101C175.141 85.6477 174.844 85.2065 174.524 84.7791C174.521 84.7754 174.518 84.7717 174.515 84.768C174.513 84.7648 174.51 84.7617 174.508 84.7585L172.4 82.0958C172.058 81.6627 171.429 81.5895 170.996 81.9323L163.807 72.8498C164.24 72.507 164.313 71.8781 163.971 71.4451L159.756 66.1197C159.413 65.6866 158.784 65.6134 158.351 65.9562L151.163 56.8737C151.596 56.5309 151.669 55.902 151.326 55.469L149.219 52.8063C148.955 52.4725 148.508 52.3426 148.106 52.4824C147.704 52.6222 147.435 53.0012 147.435 53.4269C147.435 53.6414 147.427 53.8582 147.413 54.0772C147.38 54.617 147.781 55.0835 148.315 55.1349C148.279 55.4174 148.238 55.6988 148.193 55.9783C147.65 55.8862 147.135 56.2498 147.04 56.7923C147.001 57.017 146.961 57.2441 146.924 57.4699C146.768 58.1315 146.6 58.7898 146.42 59.4446C146.274 59.9744 146.583 60.5216 147.111 60.6714C146.506 62.7289 145.785 64.7503 144.951 66.7259C144.448 66.5081 143.863 66.7363 143.64 67.2385C143.361 67.8685 143.07 68.4936 142.767 69.1134C142.767 69.1141 142.766 69.1148 142.766 69.1155L142.175 70.3098C141.93 70.8048 142.133 71.4047 142.628 71.6496L141.142 74.6523C140.647 74.4074 140.047 74.6102 139.803 75.1052L139.209 76.304L139.209 76.3058L138.805 77.126C138.561 77.6215 138.765 78.221 139.26 78.4649L138.528 79.9516C138.033 79.7076 137.433 79.9116 137.19 80.4071L136.792 81.2146C136.009 82.6966 135.272 84.2001 134.582 85.7229C134.353 86.2258 134.576 86.8185 135.079 87.0467C135.081 87.0475 135.083 87.0483 135.085 87.0491C132.683 92.5186 130.88 98.2322 129.708 104.09C129.706 104.089 129.704 104.089 129.702 104.089C129.159 103.987 128.637 104.344 128.535 104.887C128.226 106.535 127.966 108.194 127.756 109.862C127.754 109.876 127.753 109.891 127.752 109.905C127.668 110.928 127.607 111.95 127.568 112.973C127.547 113.525 127.977 113.989 128.529 114.01C128.531 114.01 128.534 114.01 128.536 114.01C128.456 117.392 128.623 120.766 129.033 124.107C129.03 124.107 129.028 124.108 129.025 124.108C128.478 124.183 128.096 124.688 128.171 125.235C128.449 127.265 128.816 129.282 129.271 131.28C129.393 131.818 129.929 132.156 130.468 132.033C130.47 132.033 130.473 132.032 130.475 132.031C131.269 135.303 132.301 138.52 133.568 141.656C133.566 141.657 133.563 141.658 133.561 141.658C133.052 141.873 132.813 142.459 133.027 142.968C133.424 143.911 133.842 144.847 134.28 145.774C134.427 146.083 134.721 146.296 135.06 146.339L135.565 146.402C136.113 146.47 136.613 146.081 136.681 145.533L136.716 145.538C136.647 146.086 137.036 146.586 137.584 146.654L138.075 146.715C138.077 146.716 138.08 146.716 138.082 146.716C139.635 146.933 141.202 147.217 142.775 147.581C143.31 147.705 143.844 147.374 143.972 146.841C149.28 148.176 154.656 150.416 159.839 153.955C159.526 154.404 159.632 155.023 160.079 155.341C161.343 156.241 162.595 157.223 163.831 158.292C164.517 158.891 165.196 159.514 165.869 160.162C166.265 160.544 166.894 160.534 167.277 160.142C169.37 162.226 171.396 164.553 173.341 167.15C172.899 167.476 172.803 168.098 173.126 168.543C174.183 169.997 175.216 171.536 176.221 173.164C176.511 173.633 177.123 173.779 177.592 173.493C179.107 176.014 180.557 178.739 181.936 181.683C181.437 181.914 181.217 182.505 181.446 183.006C181.826 183.841 182.201 184.693 182.571 185.563Z" fill="#7AF264" fill-opacity="0.1" stroke="#7AF264" stroke-width="2" stroke-linecap="round" stroke-linejoin="round" stroke-dasharray="7 14"/>
</g>
<defs>
<filter id="filter0_d_1_23" x="13.2122" y="0.0482883" width="224.888" height="267.299" filterUnits="userSpaceOnUse" color-interpolation-filters="sRGB">
<feFlood flood-opacity="0" result="BackgroundImageFix"/>
<feColorMatrix in="SourceAlpha" type="matrix" values="0 0 0 0 0 0 0 0 0 0 0 0 0 0 0 0 0 0 127 0" result="hardAlpha"/>
<feOffset/>
<feGaussianBlur stdDeviation="18.55"/>
<feComposite in2="hardAlpha" operator="out"/>
<feColorMatrix type="matrix" values="0 0 0 0 0.478431 0 0 0 0 0.94902 0 0 0 0 0.392157 0 0 0 0.15 0"/>
<feBlend mode="normal" in2="BackgroundImageFix" result="effect1_dropShadow_1_23"/>
<feBlend mode="normal" in="SourceGraphic" in2="effect1_dropShadow_1_23" result="shape"/>
</filter>
</defs>
</svg>
